<?xml version="1.0" encoding="UTF-8"?><svg id="_レイヤー_2" xmlns="http://www.w3.org/2000/svg" viewBox="0 0 151.69 162.51"><defs><style>.cls-1{fill:#2d9340;}.cls-1,.cls-2,.cls-3,.cls-4{stroke-width:0px;}.cls-2{fill:#429ebb;}.cls-3{fill:#ee892e;}.cls-4{fill:#e8c600;}</style></defs><g id="_ピクセル1_2"><rect class="cls-1" x="130.01" y="54.19" width="10.83" height="10.83"/><rect class="cls-2" x="65" y="97.55" width="10.83" height="10.83"/><rect class="cls-3" x="32.49" y="108.39" width="10.83" height="10.83"/><rect class="cls-4" x="10.84" y="140.88" width="21.64" height="21.64"/><rect class="cls-1" x="32.49" y="32.52" width="21.64" height="21.64"/><rect class="cls-3" y="68.68" width="10.83" height="10.83"/><rect class="cls-4" x="86.67" y="54.19" width="21.67" height="21.67"/><rect class="cls-4" x="97.49" y="10.85" width="10.83" height="10.83"/><rect class="cls-4" x="140.86" y="21.68" width="10.83" height="10.83"/><rect class="cls-2" x="97.49" y="86.7" width="10.83" height="10.83"/><rect class="cls-2" x="119.15" y="86.7" width="10.83" height="10.83"/><rect class="cls-4" x="65.01" y="32.51" width="10.83" height="10.83"/><rect class="cls-1" x="119.18" y="43.36" width="10.83" height="10.83"/><rect class="cls-3" x="65.02" y="75.88" width="10.83" height="10.83"/><rect class="cls-2" x="119.15" y="140.87" width="10.83" height="10.83"/><rect class="cls-3" x="43.34" y="97.55" width="10.83" height="10.83"/><rect class="cls-4" x="108.34" width="10.83" height="10.83"/><rect class="cls-1" x="140.84" y="43.36" width="10.83" height="10.83"/><rect class="cls-4" x="43.34" y="119.22" width="10.83" height="10.83"/><rect class="cls-2" x="86.66" y="75.87" width="10.83" height="10.83"/><rect class="cls-2" x="75.85" y="86.71" width="10.83" height="10.83"/></g></svg>