<?xml version="1.0" encoding="UTF-8"?><svg id="_レイヤー_2" xmlns="http://www.w3.org/2000/svg" viewBox="0 0 173.31 184.25"><defs><style>.cls-1{fill:#2d9340;}.cls-1,.cls-2,.cls-3,.cls-4{stroke-width:0px;}.cls-2{fill:#429ebb;}.cls-3{fill:#ee892e;}.cls-4{fill:#e8c600;}</style></defs><g id="_ピクセル1_1"><rect class="cls-1" x="162.48" y="65.03" width="10.83" height="10.83"/><rect class="cls-2" x="86.65" y="119.22" width="10.83" height="10.83"/><rect class="cls-2" x="54.15" y="86.74" width="21.64" height="21.64"/><rect class="cls-3" x="21.63" y="130.08" width="10.83" height="10.83"/><rect class="cls-4" x="64.98" y="119.23" width="10.83" height="10.83"/><rect class="cls-4" x="43.31" y="140.91" width="10.83" height="10.83"/><rect class="cls-3" x="54.14" y="151.74" width="10.83" height="10.83"/><rect class="cls-3" x="54.15" y="151.74" width="10.83" height="10.83"/><rect class="cls-4" x="10.82" y="173.42" width="10.83" height="10.83"/><rect class="cls-4" x="21.66" y="90.36" width="10.83" height="10.83"/><rect class="cls-4" y="112.02" width="10.83" height="10.83"/><rect class="cls-2" x="119.17" y="86.71" width="10.83" height="10.83"/><rect class="cls-3" x="86.66" y="75.87" width="10.83" height="10.83"/><rect class="cls-3" x="64.98" y="75.86" width="10.83" height="10.83"/><rect class="cls-2" x="140.79" y="108.37" width="10.83" height="10.83"/><rect class="cls-4" x="97.49" y="130.01" width="21.67" height="21.67"/><rect class="cls-4" x="86.66" y="54.2" width="10.83" height="10.83"/><rect class="cls-2" x="151.67" width="10.83" height="10.83"/><rect class="cls-4" x="129.99" y="0" width="10.83" height="10.83"/><rect class="cls-3" x="32.5" y="32.52" width="10.83" height="10.83"/><rect class="cls-4" x="140.83" y="43.35" width="10.83" height="10.83"/><rect class="cls-4" x="108.32" y="43.35" width="10.83" height="10.83"/><rect class="cls-3" x="129.99" y="10.85" width="21.66" height="21.66"/><rect class="cls-3" x="75.82" y="65.03" width="10.83" height="10.83"/></g></svg>