<?xml version="1.0" encoding="UTF-8"?><svg id="_レイヤー_2" xmlns="http://www.w3.org/2000/svg" xmlns:xlink="http://www.w3.org/1999/xlink" viewBox="0 0 352.96 213.34"><defs><style>.cls-1{clip-path:url(#clippath);}.cls-2{fill:none;}.cls-2,.cls-3,.cls-4{stroke-width:0px;}.cls-5{clip-path:url(#clippath-1);}.cls-6{opacity:.5;}.cls-7{opacity:.8;}.cls-3{fill:#ee892e;}.cls-4{fill:#e8c600;}</style><clipPath id="clippath"><rect class="cls-2" x="139.73" y="148.57" width="25.89" height="25.89"/></clipPath><clipPath id="clippath-1"><rect class="cls-2" x="38.97" y="83.69" width="25.93" height="25.94"/></clipPath></defs><g id="_ピクセル2_1"><rect class="cls-3" x="142.66" y="57.77" width="12.96" height="12.96"/><rect class="cls-3" x="129.7" y="44.82" width="12.96" height="12.96"/><rect class="cls-3" x="77.81" y="122.6" width="12.96" height="12.96"/><rect class="cls-3" x="25.98" y="57.81" width="12.96" height="12.96"/><rect class="cls-3" x="77.81" y="148.54" width="12.96" height="12.96"/><g class="cls-6"><g class="cls-1"><rect class="cls-4" x="139.73" y="148.56" width="25.89" height="25.89"/></g></g><rect class="cls-4" x="51.86" y="187.45" width="12.96" height="12.96"/><rect class="cls-4" x="64.84" y="135.57" width="12.96" height="12.96"/><rect class="cls-4" x="38.91" y="161.51" width="12.96" height="12.96"/><rect class="cls-3" x="25.95" y="148.55" width="12.96" height="12.96"/><rect class="cls-4" y="200.39" width="12.96" height="12.96"/><rect class="cls-4" x="99.39" y="187.41" width="12.96" height="12.96"/><rect class="cls-3" x="129.7" y="122.6" width="12.96" height="12.96"/><rect class="cls-3" x="116.75" y="135.57" width="12.96" height="12.96"/><rect class="cls-4" x="103.75" y="96.69" width="12.96" height="12.96"/><rect class="cls-3" x="90.79" y="57.82" width="12.96" height="12.96"/><g class="cls-7"><g class="cls-5"><rect class="cls-3" x="38.97" y="83.69" width="25.93" height="25.93"/></g></g><rect class="cls-4" x="142.66" y="109.63" width="12.96" height="12.96"/><rect class="cls-4" x="181.55" y="83.73" width="12.96" height="12.96"/><rect class="cls-4" x="207.51" y="57.78" width="12.96" height="12.96"/><rect class="cls-4" x="194.54" y="70.75" width="12.96" height="12.96"/><rect class="cls-3" x="168.6" y="174.44" width="12.96" height="12.96"/><rect class="cls-4" x="155.64" y="44.81" width="12.96" height="12.96"/><rect class="cls-3" x="340" y="12.99" width="12.96" height="12.96"/><rect class="cls-3" x="314.08" y="12.99" width="12.96" height="12.96"/><rect class="cls-4" x="301.12" y="25.95" width="12.96" height="12.96"/><rect class="cls-4" x="327.03" width="12.96" height="12.96"/><rect class="cls-4" x="168.6" y="31.84" width="12.96" height="12.96"/><rect class="cls-4" x="155.64" y="83.71" width="12.96" height="12.96"/></g></svg>