<?xml version="1.0" encoding="UTF-8"?><svg id="_レイヤー_2" xmlns="http://www.w3.org/2000/svg" xmlns:xlink="http://www.w3.org/1999/xlink" viewBox="0 0 365.83 239.25"><defs><style>.cls-1{clip-path:url(#clippath);}.cls-2{fill:none;}.cls-2,.cls-3,.cls-4{stroke-width:0px;}.cls-5{clip-path:url(#clippath-1);}.cls-6{opacity:.8;}.cls-3{fill:#ee892e;}.cls-4{fill:#e8c600;}</style><clipPath id="clippath"><rect class="cls-2" x="168.54" y="57.78" width="25.92" height="25.92"/></clipPath><clipPath id="clippath-1"><rect class="cls-2" x="339.92" width="25.92" height="25.92"/></clipPath></defs><g id="_ピクセル2_2"><rect class="cls-3" x="129.62" y="44.82" width="12.96" height="12.96"/><rect class="cls-4" x="77.74" y="122.6" width="12.96" height="12.96"/><rect class="cls-3" x="90.7" y="135.56" width="12.96" height="12.96"/><rect class="cls-3" x="51.82" y="122.61" width="12.96" height="12.96"/><rect class="cls-3" x="51.81" y="174.47" width="12.96" height="12.96"/><rect class="cls-4" y="187.43" width="25.89" height="25.89"/><rect class="cls-4" x="38.84" y="161.5" width="12.96" height="12.96"/><rect class="cls-3" x="12.91" y="161.5" width="12.96" height="12.96"/><rect class="cls-3" x="99.32" y="213.34" width="12.96" height="12.96"/><rect class="cls-4" x="60.44" y="226.29" width="12.96" height="12.96"/><rect class="cls-4" x="90.73" y="83.7" width="12.96" height="12.96"/><rect class="cls-3" x="103.69" y="122.6" width="12.96" height="12.96"/><rect class="cls-4" x="77.76" y="96.7" width="12.96" height="12.96"/><rect class="cls-3" x="64.8" y="57.82" width="12.96" height="12.96"/><rect class="cls-4" x="142.6" y="135.57" width="12.96" height="12.96"/><rect class="cls-4" x="194.48" y="44.8" width="12.96" height="12.96"/><g class="cls-6"><g class="cls-1"><rect class="cls-3" x="168.54" y="57.78" width="25.92" height="25.92"/></g></g><g class="cls-6"><g class="cls-5"><rect class="cls-3" x="339.92" y="0" width="25.92" height="25.92"/></g></g><rect class="cls-3" x="314" y="38.91" width="12.96" height="12.96"/><rect class="cls-4" x="262.17" y="12.99" width="12.96" height="12.96"/></g></svg>