<?xml version="1.0" encoding="UTF-8"?><svg id="_レイヤー_2" xmlns="http://www.w3.org/2000/svg" xmlns:xlink="http://www.w3.org/1999/xlink" viewBox="0 0 324.17 142.6"><defs><style>.cls-1{clip-path:url(#clippath);}.cls-2{fill:none;}.cls-2,.cls-3{stroke-width:0px;}.cls-4{clip-path:url(#clippath-1);}.cls-5{clip-path:url(#clippath-4);}.cls-6{clip-path:url(#clippath-3);}.cls-7{clip-path:url(#clippath-2);}.cls-8{clip-path:url(#clippath-7);}.cls-9{clip-path:url(#clippath-6);}.cls-10{clip-path:url(#clippath-5);}.cls-11{opacity:.3;}.cls-12{opacity:.5;}.cls-13{opacity:.7;}.cls-3{fill:#3d8f3a;}</style><clipPath id="clippath"><rect class="cls-2" x="64.85" y="51.87" width="12.96" height="12.96"/></clipPath><clipPath id="clippath-1"><rect class="cls-2" x="142.67" y="38.89" width="12.96" height="12.96"/></clipPath><clipPath id="clippath-2"><rect class="cls-2" x="168.58" y="64.85" width="12.96" height="12.96"/></clipPath><clipPath id="clippath-3"><rect class="cls-2" x="116.73" y="51.87" width="25.92" height="25.92"/></clipPath><clipPath id="clippath-4"><rect class="cls-2" x="194.52" y="64.89" width="12.96" height="12.96"/></clipPath><clipPath id="clippath-5"><rect class="cls-2" x="272.34" y="38.91" width="12.96" height="12.96"/></clipPath><clipPath id="clippath-6"><rect class="cls-2" x="311.21" y="51.87" width="12.96" height="12.96"/></clipPath><clipPath id="clippath-7"><rect class="cls-2" x="90.8" y="90.77" width="12.96" height="12.95"/></clipPath></defs><g id="_ピクセル3_2"><rect class="cls-3" x="38.91" y="103.74" width="12.96" height="12.96"/><rect class="cls-3" x="51.86" y="90.78" width="12.96" height="12.96"/><rect class="cls-3" x="12.97" y="103.74" width="12.96" height="12.96"/><rect class="cls-3" x="0" y="90.77" width="12.96" height="12.96"/><rect class="cls-3" y="64.83" width="12.96" height="12.96"/><rect class="cls-3" x="12.96" y="51.87" width="12.96" height="12.96"/><rect class="cls-3" x="12.97" y="51.87" width="12.96" height="12.96"/><rect class="cls-3" x="77.77" y="116.72" width="12.96" height="12.96"/><rect class="cls-3" x="77.81" y="64.83" width="12.96" height="12.96"/><g class="cls-11"><g class="cls-1"><rect class="cls-3" x="64.85" y="51.87" width="12.96" height="12.96"/></g></g><g class="cls-11"><g class="cls-4"><rect class="cls-3" x="142.67" y="38.89" width="12.96" height="12.96"/></g></g><rect class="cls-3" x="142.66" y="64.83" width="12.96" height="12.96"/><rect class="cls-3" x="129.7" y="77.8" width="12.96" height="12.96"/><g class="cls-11"><g class="cls-7"><rect class="cls-3" x="168.58" y="64.85" width="12.96" height="12.96"/></g></g><g class="cls-12"><g class="cls-6"><rect class="cls-3" x="116.73" y="51.87" width="25.92" height="25.92"/></g></g><rect class="cls-3" x="103.75" y="38.89" width="12.96" height="12.96"/><rect class="cls-3" x="194.5" y="38.88" width="25.93" height="25.93"/><rect class="cls-3" x="207.48" y="51.93" width="12.96" height="12.96"/><g class="cls-11"><g class="cls-5"><rect class="cls-3" x="194.52" y="64.89" width="12.96" height="12.96"/></g></g><g class="cls-11"><g class="cls-10"><rect class="cls-3" x="272.34" y="38.91" width="12.96" height="12.96"/></g></g><g class="cls-11"><g class="cls-9"><rect class="cls-3" x="311.21" y="51.87" width="12.96" height="12.96"/></g></g><rect class="cls-3" x="272.33" y="12.97" width="12.96" height="12.96"/><rect class="cls-3" x="259.36" width="12.96" height="12.96"/><rect class="cls-3" x="220.47" y="25.94" width="12.96" height="12.96"/><g class="cls-13"><g class="cls-8"><rect class="cls-3" x="90.8" y="90.76" width="12.96" height="12.96"/></g></g><polygon class="cls-3" points="38.87 116.71 12.98 116.71 12.98 129.66 25.93 129.66 25.93 142.6 38.87 142.6 38.87 116.71"/></g></svg>