<?xml version="1.0" encoding="UTF-8"?><svg id="_レイヤー_2" xmlns="http://www.w3.org/2000/svg" xmlns:xlink="http://www.w3.org/1999/xlink" viewBox="0 0 337.15 129.69"><defs><style>.cls-1{clip-path:url(#clippath);}.cls-2{fill:none;}.cls-2,.cls-3{stroke-width:0px;}.cls-4{clip-path:url(#clippath-1);}.cls-5{clip-path:url(#clippath-4);}.cls-6{clip-path:url(#clippath-3);}.cls-7{clip-path:url(#clippath-2);}.cls-8{opacity:.3;}.cls-9{opacity:.5;}.cls-3{fill:#3d8f3a;}</style><clipPath id="clippath"><rect class="cls-2" x="103.75" y="25.96" width="12.96" height="12.96"/></clipPath><clipPath id="clippath-1"><rect class="cls-2" x="207.49" y="12.98" width="12.96" height="12.96"/></clipPath><clipPath id="clippath-2"><rect class="cls-2" x="233.42" y="64.9" width="12.96" height="12.95"/></clipPath><clipPath id="clippath-3"><rect class="cls-2" x="324.19" width="12.96" height="12.96"/></clipPath><clipPath id="clippath-4"><rect class="cls-2" x="272.34" y=".02" width="25.92" height="25.92"/></clipPath></defs><g id="_ピクセル3_1"><rect class="cls-3" x="77.81" y="103.76" width="12.96" height="12.96"/><rect class="cls-3" x="64.85" y="116.72" width="12.96" height="12.96"/><rect class="cls-3" y="64.84" width="12.96" height="12.96"/><rect class="cls-3" x="51.88" y="77.82" width="12.96" height="12.96"/><rect class="cls-3" x="38.91" y="64.86" width="12.96" height="12.96"/><rect class="cls-3" x="90.75" y="116.73" width="12.96" height="12.96"/><rect class="cls-3" x="90.78" y="51.95" width="25.93" height="25.93"/><g class="cls-9"><g class="cls-1"><rect class="cls-3" x="103.75" y="25.97" width="12.96" height="12.96"/></g></g><rect class="cls-3" x="90.79" y="13.01" width="12.96" height="12.96"/><rect class="cls-3" x="142.65" y="77.83" width="12.96" height="12.96"/><g class="cls-8"><g class="cls-4"><rect class="cls-3" x="207.49" y="12.98" width="12.96" height="12.96"/></g></g><rect class="cls-3" x="181.57" y="38.95" width="12.96" height="12.96"/><rect class="cls-3" x="116.74" y="38.91" width="12.96" height="12.96"/><g class="cls-9"><g class="cls-7"><rect class="cls-3" x="233.42" y="64.9" width="12.96" height="12.96"/></g></g><rect class="cls-3" x="220.46" y="77.85" width="12.96" height="12.96"/><rect class="cls-3" x="311.23" y="12.96" width="12.96" height="12.96"/><g class="cls-8"><g class="cls-6"><rect class="cls-3" x="324.19" width="12.96" height="12.96"/></g></g><g class="cls-9"><g class="cls-5"><rect class="cls-3" x="272.34" y=".02" width="25.92" height="25.92"/></g></g><rect class="cls-3" x="259.36" y="25.96" width="12.96" height="12.96"/></g></svg>