<?xml version="1.0" encoding="UTF-8"?><svg id="_レイヤー_2" xmlns="http://www.w3.org/2000/svg" viewBox="0 0 200.38 328.76"><defs><style>.cls-1{opacity:.5;}.cls-1,.cls-2{fill:#3d8f3a;stroke-width:0px;}</style></defs><g id="_ピクセル3_b"><rect class="cls-1" x="4.06" y="237.29" width="4.06" height="4.06"/><rect class="cls-1" x="153.81" y="312.18" width="4.06" height="4.06"/><rect class="cls-2" x="161.93" y="300" width="8.11" height="8.11"/><rect class="cls-2" x="69.03" y="223.39" width="4.06" height="4.06"/><rect class="cls-1" x="49.81" y="324.71" width="4.06" height="4.06"/><rect class="cls-1" x="157.87" y="295.94" width="4.06" height="4.06"/><rect class="cls-2" x="153.81" y="299.99" width="4.06" height="4.06"/><rect class="cls-2" x="153.81" y="300" width="4.06" height="4.06"/><rect class="cls-1" x="44.52" y="4.06" width="4.06" height="4.06"/><rect class="cls-1" x="83.92" y="223.4" width="4.06" height="4.06"/><rect class="cls-1" x="155.45" width="4.06" height="4.06"/><rect class="cls-1" x="75.8" y="215.28" width="4.06" height="4.06"/><rect class="cls-2" x="40.45" y="8.12" width="4.06" height="4.06"/><rect class="cls-1" x="39.22" y="303.72" width="4.06" height="4.06"/><rect class="cls-1" x="186.94" y="305.82" width="4.06" height="4.06"/><rect class="cls-2" y="233.89" width="4.06" height="4.06"/><rect class="cls-2" x="170.06" y="304.06" width="4.06" height="4.06"/><rect class="cls-1" x="196.32" y="158.94" width="4.06" height="4.06"/><rect class="cls-1" x="32.32" y="12.18" width="8.12" height="8.12"/><rect class="cls-2" x="87.33" y="227.46" width="4.06" height="4.06"/><rect class="cls-2" x="64.97" y="161.72" width="4.06" height="4.06"/><rect class="cls-2" x="179.27" y="31.64" width="4.06" height="4.06"/></g></svg>