<?xml version="1.0" encoding="UTF-8"?><svg id="_レイヤー_2" xmlns="http://www.w3.org/2000/svg" viewBox="0 0 216.76 129.98"><defs><style>.cls-1{opacity:.5;}.cls-1,.cls-2{fill:#429ebb;stroke-width:0px;}</style></defs><g id="_ピクセル4_2"><rect class="cls-1" x="151.74" y="65" width="10.83" height="10.83"/><rect class="cls-1" x="54.13" y="65" width="10.83" height="10.83"/><rect class="cls-2" x="43.3" y="32.49" width="10.83" height="10.83"/><rect class="cls-2" y="10.84" width="21.64" height="21.64"/><rect class="cls-1" x="108.36" y="32.49" width="21.64" height="21.64"/><rect class="cls-1" x="83" width="10.83" height="10.83"/><rect class="cls-2" x="86.65" y="86.67" width="21.67" height="21.67"/><rect class="cls-2" x="140.83" y="97.49" width="10.83" height="10.83"/><rect class="cls-2" x="184.25" y="75.85" width="10.83" height="10.83"/><rect class="cls-1" x="64.98" y="97.49" width="10.83" height="10.83"/><rect class="cls-2" x="64.98" y="119.15" width="10.83" height="10.83"/><rect class="cls-2" x="119.17" y="65.01" width="10.83" height="10.83"/><rect class="cls-2" x="162.57" y="54.18" width="10.83" height="10.83"/><rect class="cls-1" x="75.8" y="65.02" width="10.83" height="10.83"/><rect class="cls-2" x="10.81" y="119.15" width="10.83" height="10.83"/><rect class="cls-2" x="54.13" y="43.34" width="10.83" height="10.83"/><rect class="cls-1" x="205.93" y="43.33" width="10.83" height="10.83"/><rect class="cls-2" x="162.57" y="75.83" width="10.83" height="10.83"/><rect class="cls-1" x="32.46" y="43.34" width="10.83" height="10.83"/><rect class="cls-1" x="75.81" y="86.66" width="10.83" height="10.83"/><rect class="cls-2" x="64.97" y="75.85" width="10.83" height="10.83"/></g></svg>