<?xml version="1.0" encoding="UTF-8"?><svg id="_レイヤー_2" xmlns="http://www.w3.org/2000/svg" xmlns:xlink="http://www.w3.org/1999/xlink" viewBox="0 0 194.45 181.54"><defs><style>.cls-1{clip-path:url(#clippath);}.cls-2{fill:none;}.cls-2,.cls-3{stroke-width:0px;}.cls-4{clip-path:url(#clippath-1);}.cls-5{clip-path:url(#clippath-3);}.cls-6{clip-path:url(#clippath-2);}.cls-7{opacity:.3;}.cls-8{opacity:.5;}.cls-3{fill:#e8c600;}</style><clipPath id="clippath"><rect class="cls-2" x="168.52" y="103.74" width="12.96" height="12.95"/></clipPath><clipPath id="clippath-1"><rect class="cls-2" x="77.78" y="168.58" width="12.96" height="12.96"/></clipPath><clipPath id="clippath-2"><rect class="cls-2" x="51.85" y="142.67" width="25.89" height="25.89"/></clipPath><clipPath id="clippath-3"><rect class="cls-2" x="77.78" y="116.69" width="12.96" height="12.96"/></clipPath></defs><g id="_ピクセル5_1"><g class="cls-8"><g class="cls-1"><rect class="cls-3" x="168.52" y="103.74" width="12.96" height="12.96"/></g></g><rect class="cls-3" x="181.48" y="116.69" width="12.96" height="12.96"/><rect class="cls-3" x="90.74" y="155.61" width="12.96" height="12.96"/><g class="cls-8"><g class="cls-4"><rect class="cls-3" x="77.78" y="168.58" width="12.96" height="12.96"/></g></g><rect class="cls-3" x="51.84" y="168.58" width="12.96" height="12.96"/><g class="cls-8"><g class="cls-6"><rect class="cls-3" x="51.85" y="142.67" width="25.89" height="25.89"/></g></g><rect class="cls-3" y="134.03" width="12.96" height="12.96"/><rect class="cls-3" x="129.64" y="142.63" width="12.96" height="12.96"/><rect class="cls-3" x="90.74" y="129.66" width="12.96" height="12.96"/><g class="cls-7"><g class="cls-5"><rect class="cls-3" x="77.78" y="116.69" width="12.96" height="12.96"/></g></g><rect class="cls-3" x="155.52" y="168.55" width="12.96" height="12.96"/><rect class="cls-3" x="181.5" width="12.96" height="12.96"/><rect class="cls-3" x="142.6" y="38.88" width="12.96" height="12.96"/><rect class="cls-3" x="129.63" y="51.85" width="12.96" height="12.96"/><rect class="cls-3" x="142.58" y="12.96" width="12.96" height="12.96"/></g></svg>