<?xml version="1.0" encoding="UTF-8"?><svg id="_レイヤー_2" xmlns="http://www.w3.org/2000/svg" xmlns:xlink="http://www.w3.org/1999/xlink" viewBox="0 0 194.45 159.95"><defs><style>.cls-1{clip-path:url(#clippath);}.cls-2{fill:none;}.cls-2,.cls-3{stroke-width:0px;}.cls-4{clip-path:url(#clippath-1);}.cls-5{clip-path:url(#clippath-4);}.cls-6{clip-path:url(#clippath-3);}.cls-7{clip-path:url(#clippath-2);}.cls-8{opacity:.3;}.cls-9{opacity:.5;}.cls-3{fill:#e8c600;}</style><clipPath id="clippath"><rect class="cls-2" x="155.55" y="77.82" width="12.96" height="12.95"/></clipPath><clipPath id="clippath-1"><rect class="cls-2" x="25.92" y="121.08" width="12.96" height="12.96"/></clipPath><clipPath id="clippath-2"><rect class="cls-2" x="129.59" y="129.68" width="12.96" height="12.95"/></clipPath><clipPath id="clippath-3"><rect class="cls-2" x="129.6" y="38.92" width="12.96" height="12.96"/></clipPath><clipPath id="clippath-4"><rect class="cls-2" x="155.55" y="25.93" width="25.92" height="25.92"/></clipPath></defs><g id="_ピクセル5_2"><g class="cls-9"><g class="cls-1"><rect class="cls-3" x="155.55" y="77.81" width="12.96" height="12.96"/></g></g><rect class="cls-3" x="168.51" y="90.77" width="12.96" height="12.96"/><rect class="cls-3" x="90.74" y="116.73" width="12.96" height="12.96"/><g class="cls-9"><g class="cls-4"><rect class="cls-3" x="25.92" y="121.08" width="12.96" height="12.96"/></g></g><rect class="cls-3" y="147" width="12.96" height="12.96"/><rect class="cls-3" x="129.63" y="103.74" width="12.96" height="12.96"/><rect class="cls-3" x="77.76" y="103.72" width="12.96" height="12.96"/><rect class="cls-3" x="116.63" y="116.72" width="12.96" height="12.96"/><g class="cls-9"><g class="cls-7"><rect class="cls-3" x="129.59" y="129.68" width="12.96" height="12.96"/></g></g><rect class="cls-3" x="155.51" y="129.68" width="12.96" height="12.96"/><rect class="cls-3" x="116.66" y="90.77" width="25.93" height="25.93"/><rect class="cls-3" x="103.69" y="77.81" width="12.96" height="12.96"/><rect class="cls-3" x="90.72" y="64.83" width="12.96" height="12.96"/><g class="cls-9"><g class="cls-6"><rect class="cls-3" x="129.6" y="38.92" width="12.96" height="12.96"/></g></g><rect class="cls-3" x="181.49" y="12.95" width="12.96" height="12.96"/><rect class="cls-3" x="168.49" width="12.96" height="12.96"/><g class="cls-8"><g class="cls-5"><rect class="cls-3" x="155.55" y="25.93" width="25.92" height="25.92"/></g></g><rect class="cls-3" x="168.52" y="64.83" width="12.96" height="12.96"/><rect class="cls-3" x="181.49" y="51.87" width="12.96" height="12.96"/><rect class="cls-3" x="129.62" y="64.83" width="12.96" height="12.96"/></g></svg>